<svg aria-hidden="true" style="position: absolute; width: 0; height: 0; overflow: hidden;" version="1.1" xmlns="http://www.w3.org/2000/svg" xmlns:xlink="http://www.w3.org/1999/xlink">
<defs>
<symbol id="facebook-icon" viewBox="0 0 32 32">
<path d="M31.997 15.999c0-8.836-7.163-15.999-15.999-15.999s-15.999 7.163-15.999 15.999c0 7.985 5.851 14.604 13.499 15.804v-11.18h-4.062v-4.625h4.062v-3.525c0-4.010 2.389-6.225 6.043-6.225 1.75 0 3.581 0.312 3.581 0.312v3.937h-2.017c-1.987 0-2.607 1.233-2.607 2.498v3.001h4.437l-0.709 4.625h-3.728v11.18c7.649-1.2 13.499-7.819 13.499-15.804z"></path>
</symbol>
<symbol id="twitter-icon" viewBox="0 0 38 32">
<path d="M38.326 4.111c-1.416 0.622-2.928 1.046-4.52 1.24 1.622-0.978 2.87-2.518 3.461-4.357-1.522 0.888-3.208 1.534-5.003 1.894-1.434-1.534-3.477-2.494-5.746-2.494-4.347 0-7.872 3.525-7.872 7.867 0 0.624 0.072 1.224 0.203 1.798-6.544-0.309-12.344-3.451-16.226-8.202-0.683 1.155-1.066 2.498-1.066 3.96 0 2.736 1.392 5.141 3.501 6.554-1.291-0.042-2.506-0.397-3.565-0.986v0.098c0 3.816 2.709 6.998 6.314 7.723-0.661 0.178-1.358 0.274-2.074 0.274-0.502 0-0.984-0.048-1.466-0.138 1.010 3.125 3.912 5.403 7.366 5.467-2.688 2.11-6.094 3.368-9.763 3.368-0.624 0-1.246-0.037-1.872-0.107 3.502 2.23 7.629 3.534 12.091 3.534 14.486 0 22.398-11.994 22.398-22.378 0-0.334 0-0.672-0.024-1.008 1.538-1.102 2.88-2.496 3.936-4.077l-0.075-0.032z"></path>
</symbol>
<symbol id="youtube-icon" viewBox="0 0 43 32">
<path d="M41.776 5.694c-0.247-0.886-0.719-1.694-1.37-2.344s-1.458-1.122-2.344-1.37c-3.324-0.891-16.711-0.891-16.711-0.891s-13.349-0.018-16.709 0.891c-0.886 0.248-1.693 0.72-2.344 1.371s-1.122 1.459-1.368 2.345c-0.631 3.404-0.942 6.86-0.93 10.322-0.010 3.45 0.301 6.893 0.93 10.285 0.247 0.886 0.719 1.693 1.369 2.344s1.457 1.122 2.343 1.37c3.323 0.892 16.711 0.892 16.711 0.892s13.348 0 16.709-0.892c0.886-0.247 1.694-0.719 2.345-1.37s1.122-1.459 1.369-2.345c0.615-3.393 0.912-6.835 0.889-10.283 0.026-3.462-0.272-6.919-0.889-10.325v0.002zM17.081 22.405v-12.793l11.14 6.407-11.14 6.386z"></path>
</symbol>
<symbol id="insta-icon" viewBox="0 0 32 32">
<path d="M16 0c-4.347 0-4.889 0.020-6.596 0.096-1.704 0.080-2.864 0.348-3.884 0.744-1.052 0.408-1.945 0.956-2.835 1.845s-1.439 1.781-1.845 2.835c-0.396 1.020-0.665 2.18-0.744 3.884-0.080 1.707-0.096 2.249-0.096 6.596s0.020 4.889 0.096 6.596c0.080 1.703 0.348 2.864 0.744 3.884 0.408 1.051 0.956 1.945 1.845 2.835 0.889 0.888 1.781 1.439 2.835 1.845 1.021 0.395 2.181 0.665 3.884 0.744 1.707 0.080 2.249 0.096 6.596 0.096s4.889-0.020 6.596-0.096c1.703-0.080 2.864-0.349 3.884-0.744 1.051-0.408 1.945-0.957 2.835-1.845 0.888-0.889 1.439-1.78 1.845-2.835 0.395-1.020 0.665-2.181 0.744-3.884 0.080-1.707 0.096-2.249 0.096-6.596s-0.020-4.889-0.096-6.596c-0.080-1.703-0.349-2.865-0.744-3.884-0.408-1.052-0.957-1.945-1.845-2.835-0.889-0.889-1.78-1.439-2.835-1.845-1.020-0.396-2.181-0.665-3.884-0.744-1.707-0.080-2.249-0.096-6.596-0.096zM16 2.88c4.271 0 4.78 0.021 6.467 0.095 1.56 0.073 2.407 0.332 2.969 0.553 0.749 0.289 1.28 0.636 1.843 1.195 0.559 0.56 0.905 1.092 1.195 1.841 0.219 0.563 0.48 1.409 0.551 2.969 0.076 1.688 0.093 2.195 0.093 6.467s-0.020 4.78-0.099 6.467c-0.081 1.56-0.341 2.407-0.561 2.969-0.299 0.749-0.639 1.28-1.199 1.843-0.559 0.559-1.099 0.905-1.84 1.195-0.56 0.219-1.42 0.48-2.98 0.551-1.699 0.076-2.199 0.093-6.479 0.093-4.281 0-4.781-0.020-6.479-0.099-1.561-0.081-2.421-0.341-2.981-0.561-0.759-0.299-1.28-0.639-1.839-1.199-0.561-0.559-0.92-1.099-1.2-1.84-0.22-0.56-0.479-1.42-0.56-2.98-0.060-1.68-0.081-2.199-0.081-6.459 0-4.261 0.021-4.781 0.081-6.481 0.081-1.56 0.34-2.419 0.56-2.979 0.28-0.76 0.639-1.28 1.2-1.841 0.559-0.559 1.080-0.919 1.839-1.197 0.56-0.221 1.401-0.481 2.961-0.561 1.7-0.060 2.2-0.080 6.479-0.080l0.060 0.040zM16 7.784c-4.54 0-8.216 3.68-8.216 8.216 0 4.54 3.68 8.216 8.216 8.216 4.54 0 8.216-3.68 8.216-8.216 0-4.54-3.68-8.216-8.216-8.216zM16 21.333c-2.947 0-5.333-2.387-5.333-5.333s2.387-5.333 5.333-5.333c2.947 0 5.333 2.387 5.333 5.333s-2.387 5.333-5.333 5.333zM26.461 7.46c0 1.060-0.861 1.92-1.92 1.92-1.060 0-1.92-0.861-1.92-1.92s0.861-1.919 1.92-1.919c1.057-0.001 1.92 0.86 1.92 1.919z"></path>
</symbol>
<symbol id="spotify-icon" viewBox="0 0 32 32">
<path d="M16 0c-8.8 0-16 7.2-16 16s7.2 16 16 16c8.8 0 16-7.2 16-16s-7.12-16-16-16zM23.361 23.12c-0.32 0.479-0.88 0.64-1.361 0.32-3.76-2.32-8.48-2.801-14.081-1.521-0.557 0.163-1.039-0.239-1.199-0.719-0.16-0.561 0.24-1.040 0.72-1.2 6.080-1.361 11.36-0.8 15.52 1.76 0.56 0.24 0.639 0.879 0.401 1.36zM25.281 18.72c-0.401 0.56-1.121 0.8-1.683 0.4-4.319-2.64-10.879-3.44-15.919-1.84-0.639 0.16-1.36-0.16-1.52-0.8s0.16-1.361 0.8-1.521c5.84-1.759 13.040-0.877 18 2.161 0.481 0.241 0.72 1.040 0.321 1.6zM25.441 14.24c-5.121-3.040-13.681-3.36-18.561-1.839-0.8 0.239-1.6-0.241-1.84-0.961-0.24-0.801 0.24-1.6 0.96-1.841 5.68-1.68 15.040-1.36 20.961 2.161 0.719 0.4 0.959 1.36 0.559 2.080-0.399 0.561-1.36 0.799-2.079 0.4z"></path>
</symbol>
<symbol id="itunes-icon" viewBox="0 0 27 32">
<path d="M6.771 31.4c-0.631-0.421-1.191-0.937-1.659-1.533-0.511-0.617-0.984-1.267-1.419-1.939-1.021-1.493-1.82-3.127-2.373-4.848-0.667-2.003-0.991-3.92-0.991-5.796 0-2.093 0.453-3.92 1.336-5.453 0.653-1.2 1.627-2.204 2.8-2.909 1.133-0.707 2.453-1.093 3.787-1.12 0.467 0 0.973 0.067 1.507 0.2 0.387 0.107 0.853 0.28 1.427 0.493 0.733 0.28 1.133 0.453 1.267 0.493 0.427 0.16 0.787 0.227 1.067 0.227 0.213 0 0.52-0.067 0.86-0.173 0.193-0.067 0.56-0.187 1.080-0.413 0.515-0.187 0.923-0.347 1.247-0.467 0.493-0.147 0.971-0.28 1.4-0.347 0.52-0.080 1.036-0.107 1.531-0.067 0.947 0.067 1.813 0.267 2.587 0.56 1.36 0.547 2.457 1.4 3.276 2.613-0.347 0.213-0.667 0.461-0.967 0.733-0.649 0.573-1.2 1.253-1.64 2.007-0.573 1.027-0.867 2.187-0.859 3.36 0.020 1.444 0.387 2.713 1.12 3.813 0.516 0.8 1.205 1.485 2.045 2.048 0.413 0.28 0.776 0.473 1.12 0.6-0.16 0.5-0.336 0.987-0.54 1.467-0.463 1.076-1.013 2.107-1.667 3.080-0.576 0.84-1.029 1.467-1.373 1.88-0.536 0.64-1.053 1.12-1.573 1.463-0.573 0.38-1.247 0.581-1.936 0.581-0.467 0.020-0.933-0.040-1.379-0.169-0.387-0.127-0.768-0.269-1.141-0.431-0.391-0.179-0.795-0.331-1.207-0.453-0.507-0.133-1.027-0.197-1.552-0.196-0.533 0-1.053 0.067-1.547 0.193-0.413 0.117-0.813 0.261-1.209 0.433-0.56 0.233-0.927 0.387-1.14 0.453-0.432 0.128-0.875 0.205-1.32 0.233-0.693 0-1.339-0.2-1.981-0.6l0.017-0.017zM15.909 6.787c-0.907 0.453-1.768 0.645-2.631 0.581-0.133-0.861 0-1.747 0.36-2.716 0.32-0.827 0.747-1.573 1.333-2.24 0.613-0.693 1.347-1.267 2.173-1.68 0.88-0.453 1.72-0.693 2.52-0.733 0.107 0.907 0 1.8-0.333 2.76-0.304 0.853-0.757 1.64-1.333 2.347-0.58 0.693-1.3 1.267-2.115 1.68l0.025 0.001z"></path>
</symbol>
<symbol id="icon-logo" viewBox="0 0 119 32">
<path d="M32 16c0 8.837-7.163 16-16 16s-16-7.163-16-16c0-8.837 7.163-16 16-16s16 7.163 16 16z"></path>
<path d="M42.667 6.4h76.267v22.4h-76.267v-22.4z"></path>
</symbol>
<symbol id="icon-about-rectangle" viewBox="0 0 32 32">
<path fill="#7a66cc" style="fill: var(--color2, #7a66cc)" d="M0 10.667c0-5.891 4.776-10.667 10.667-10.667h21.333v21.333c0 5.891-4.776 10.667-10.667 10.667h-21.333v-21.333z"></path>
</symbol>
<symbol id="about-icon" viewBox="0 0 66 32">
<path fill="#7a66cc" style="fill: var(--color2, #7a66cc); stroke: var(--color3, #1c1b21)" opacity="0.6" stroke="#1c1b21" stroke-linejoin="miter" stroke-linecap="butt" stroke-miterlimit="4" stroke-width="0.5161" d="M0.258 8.516h3.613v23.226h-3.613v-23.226z"></path>
<path fill="#7a66cc" style="fill: var(--color2, #7a66cc); stroke: var(--color3, #1c1b21)" opacity="0.3" stroke="#1c1b21" stroke-linejoin="miter" stroke-linecap="butt" stroke-miterlimit="4" stroke-width="0.5161" d="M4.387 18.839h3.613v12.903h-3.613v-12.903z"></path>
<path fill="#7a66cc" style="fill: var(--color2, #7a66cc); stroke: var(--color3, #1c1b21)" opacity="0.8" stroke="#1c1b21" stroke-linejoin="miter" stroke-linecap="butt" stroke-miterlimit="4" stroke-width="0.5161" d="M8.516 5.419h3.613v26.323h-3.613v-26.323z"></path>
<path fill="#7a66cc" style="fill: var(--color2, #7a66cc); stroke: var(--color3, #1c1b21)" opacity="0.6" stroke="#1c1b21" stroke-linejoin="miter" stroke-linecap="butt" stroke-miterlimit="4" stroke-width="0.5161" d="M12.645 12.645h3.613v19.097h-3.613v-19.097z"></path>
<path fill="#7a66cc" style="fill: var(--color2, #7a66cc); stroke: var(--color3, #1c1b21)" stroke="#1c1b21" stroke-linejoin="miter" stroke-linecap="butt" stroke-miterlimit="4" stroke-width="0.5161" d="M16.774 0.258h3.613v31.484h-3.613v-31.484z"></path>
<path fill="#7a66cc" style="fill: var(--color2, #7a66cc); stroke: var(--color3, #1c1b21)" opacity="0.9" stroke="#1c1b21" stroke-linejoin="miter" stroke-linecap="butt" stroke-miterlimit="4" stroke-width="0.5161" d="M20.903 5.419h3.613v26.323h-3.613v-26.323z"></path>
<path fill="#7a66cc" style="fill: var(--color2, #7a66cc); stroke: var(--color3, #1c1b21)" opacity="0.6" stroke="#1c1b21" stroke-linejoin="miter" stroke-linecap="butt" stroke-miterlimit="4" stroke-width="0.5161" d="M25.032 10.581h3.613v21.161h-3.613v-21.161z"></path>
<path fill="#7a66cc" style="fill: var(--color2, #7a66cc); stroke: var(--color3, #1c1b21)" opacity="0.8" stroke="#1c1b21" stroke-linejoin="miter" stroke-linecap="butt" stroke-miterlimit="4" stroke-width="0.5161" d="M29.161 3.355h3.613v28.387h-3.613v-28.387z"></path>
<path fill="#7a66cc" style="fill: var(--color2, #7a66cc); stroke: var(--color3, #1c1b21)" opacity="0.4" stroke="#1c1b21" stroke-linejoin="miter" stroke-linecap="butt" stroke-miterlimit="4" stroke-width="0.5161" d="M33.29 17.806h3.613v13.935h-3.613v-13.935z"></path>
<path fill="#7a66cc" style="fill: var(--color2, #7a66cc); stroke: var(--color3, #1c1b21)" opacity="0.5" stroke="#1c1b21" stroke-linejoin="miter" stroke-linecap="butt" stroke-miterlimit="4" stroke-width="0.5161" d="M37.419 12.645h3.613v19.097h-3.613v-19.097z"></path>
<path fill="#7a66cc" style="fill: var(--color2, #7a66cc); stroke: var(--color3, #1c1b21)" opacity="0.55" stroke="#1c1b21" stroke-linejoin="miter" stroke-linecap="butt" stroke-miterlimit="4" stroke-width="0.5161" d="M41.548 8.516h3.613v23.226h-3.613v-23.226z"></path>
<path fill="#7a66cc" style="fill: var(--color2, #7a66cc); stroke: var(--color3, #1c1b21)" opacity="0.6" stroke="#1c1b21" stroke-linejoin="miter" stroke-linecap="butt" stroke-miterlimit="4" stroke-width="0.5161" d="M45.677 4.387h3.613v27.355h-3.613v-27.355z"></path>
<path fill="#7a66cc" style="fill: var(--color2, #7a66cc); stroke: var(--color3, #1c1b21)" opacity="0.3" stroke="#1c1b21" stroke-linejoin="miter" stroke-linecap="butt" stroke-miterlimit="4" stroke-width="0.5161" d="M49.806 19.871h3.613v11.871h-3.613v-11.871z"></path>
<path fill="#7a66cc" style="fill: var(--color2, #7a66cc); stroke: var(--color3, #1c1b21)" opacity="0.2" stroke="#1c1b21" stroke-linejoin="miter" stroke-linecap="butt" stroke-miterlimit="4" stroke-width="0.5161" d="M53.935 25.032h3.613v6.71h-3.613v-6.71z"></path>
<path fill="#7a66cc" style="fill: var(--color2, #7a66cc); stroke: var(--color3, #1c1b21)" opacity="0.8" stroke="#1c1b21" stroke-linejoin="miter" stroke-linecap="butt" stroke-miterlimit="4" stroke-width="0.5161" d="M58.065 2.323h3.613v29.419h-3.613v-29.419z"></path>
<path fill="#7a66cc" style="fill: var(--color2, #7a66cc); stroke: var(--color3, #1c1b21)" opacity="0.8" stroke="#1c1b21" stroke-linejoin="miter" stroke-linecap="butt" stroke-miterlimit="4" stroke-width="0.5161" d="M62.194 8.516h3.613v23.226h-3.613v-23.226z"></path>
</symbol>
</defs>
</svg>
