<svg aria-hidden="true" style="position: absolute; width: 0; height: 0; overflow: hidden;" version="1.1" xmlns="http://www.w3.org/2000/svg" xmlns:xlink="http://www.w3.org/1999/xlink">
<defs>
<symbol id="icon-burger-menu" viewBox="0 0 32 32">
<path d="M27.333 9.333h-22.667c-0.736 0-1.333-0.597-1.333-1.333s0.597-1.333 1.333-1.333v0h22.667c0.736 0 1.333 0.597 1.333 1.333s-0.597 1.333-1.333 1.333v0z"></path>
<path d="M27.333 17.333h-22.667c-0.736 0-1.333-0.597-1.333-1.333s0.597-1.333 1.333-1.333v0h22.667c0.736 0 1.333 0.597 1.333 1.333s-0.597 1.333-1.333 1.333v0z"></path>
<path d="M27.333 25.333h-22.667c-0.736 0-1.333-0.597-1.333-1.333s0.597-1.333 1.333-1.333v0h22.667c0.736 0 1.333 0.597 1.333 1.333s-0.597 1.333-1.333 1.333v0z"></path>
</symbol>
<symbol id="icon-close" viewBox="0 0 32 32">
<path d="M17.88 16l5.733-5.72c0.242-0.242 0.392-0.577 0.392-0.947 0-0.739-0.599-1.339-1.339-1.339-0.37 0-0.704 0.15-0.947 0.392v0l-5.72 5.733-5.72-5.733c-0.242-0.242-0.577-0.392-0.947-0.392-0.739 0-1.339 0.599-1.339 1.339 0 0.37 0.15 0.704 0.392 0.947v0l5.733 5.72-5.733 5.72c-0.244 0.242-0.394 0.577-0.394 0.947s0.151 0.705 0.394 0.947l0 0c0.242 0.244 0.577 0.394 0.947 0.394s0.705-0.151 0.947-0.394l0-0 5.72-5.733 5.72 5.733c0.242 0.244 0.577 0.394 0.947 0.394s0.705-0.151 0.947-0.394l0-0c0.244-0.242 0.394-0.577 0.394-0.947s-0.151-0.705-0.394-0.947l-0-0z"></path>
</symbol>
<symbol id="icon-up-arrow" viewBox="0 0 32 32">
<path d="M16 0c-8.822 0-16 7.178-16 16s7.178 16 16 16 16-7.178 16-16-7.178-16-16-16zM24.786 19.938c-0.284 0.284-0.656 0.426-1.028 0.426s-0.745-0.142-1.028-0.426l-6.729-6.729-6.729 6.729c-0.568 0.568-1.489 0.568-2.057 0s-0.568-1.489 0-2.057l7.757-7.758c0.273-0.273 0.643-0.426 1.028-0.426s0.756 0.153 1.029 0.426l7.758 7.758c0.568 0.568 0.568 1.489 0 2.057z"></path>
</symbol>
</defs>
</svg>
